<?xml version="1.0" encoding="utf-8"?>
<!-- Generator: Adobe Illustrator 25.1.0, SVG Export Plug-In . SVG Version: 6.00 Build 0)  -->
<svg version="1.1" id="Layer_1" xmlns="http://www.w3.org/2000/svg" xmlns:xlink="http://www.w3.org/1999/xlink" x="0px" y="0px"
	 viewBox="0 0 1000 1000" style="enable-background:new 0 0 1000 1000;" xml:space="preserve">
<style type="text/css">
	.st0{fill:#012F61;}
	.st1{fill:#FFFFFF;}
	.st2{fill:#99D7FD;}
</style>
<g>
	<circle class="st0" cx="500" cy="500" r="500"/>
	<g>
		<g>
			<g id="XMLID_28_">
				<path id="XMLID_31_" class="st1" d="M363.4,191.5V428c0,8,7.6,14.5,15.6,14.5c8,0,15.6-6.5,15.6-14.5V203.6
					c14.4-2.5,30.6-3.8,46.4-3.8c151.8,0,276.1,113.9,289.7,264.8c0.7,8,7.6,13.9,15.5,13.1c8-0.7,13.8-7.7,13-15.7
					c-7.1-79.3-43.5-152.8-102.4-206.8c-59.2-54.4-136.2-84.4-216.6-84.4c-21.7,0-43.8,2.2-64.9,6.5
					C368.6,178.7,363.4,184.6,363.4,191.5z"/>
			</g>
			<g id="XMLID_15_">
				<path id="XMLID_18_" class="st1" d="M447.8,796c0,0.3,0,0.7,0,1c0.6,8,7.5,14,15.5,13.4c75.9-5.4,147.7-38,202-91.6
					c54.3-53.6,87.7-124.9,94-200.6c0.7-8-5.2-15-13.2-15.7c-8-0.7-15,5.2-15.7,13.2c-11.9,141.4-127.6,255.7-269.2,265.8
					C453.7,782.1,447.8,788.5,447.8,796z"/>
			</g>
			<g id="XMLID_10_">
				<path id="XMLID_11_" class="st2" d="M425.8,248.2v234.9c0,8,6.4,14.5,14.4,14.5c8,0,14.4-6.5,14.4-14.5V263.2
					C572.2,270.7,668.5,370,668.5,491c0,54.4-19.4,107-54.7,148.3c-5.2,6.1-4.5,15.2,1.6,20.4c6.1,5.2,15.2,4.5,20.4-1.6
					c39.8-46.5,61.6-105.8,61.6-167.1c0-68.7-26.8-133.3-75.4-181.9c-48.6-48.6-113.2-75.4-181.9-75.4
					C432.3,233.7,425.8,240.2,425.8,248.2z"/>
			</g>
			<g id="XMLID_1_">
				<path id="XMLID_7_" class="st1" d="M447.8,668.5c0,0.6,0,1.2,0.1,1.8c1,7.9,8.2,13.6,16.1,12.6C560.7,671,633.6,588.5,633.6,491
					c0-40.1-12.2-78.6-35.2-111.3c-22.5-31.9-53.7-56.1-90.1-69.8c-4.4-1.7-9.7-1.1-13.6,1.6c-3.9,2.7-6.5,7.2-6.5,11.9V528
					c0,8,6.4,14.5,14.4,14.5c8,0,14.4-6.5,14.4-14.5V346c52.8,28.3,87.3,84.2,87.3,145c0,82.9-61.8,153-143.9,163.1
					C453,655.1,447.8,661.3,447.8,668.5z"/>
			</g>
		</g>
		<circle class="st1" cx="378" cy="444.1" r="33.7"/>
		<circle class="st1" cx="447.8" cy="795.5" r="33.7"/>
	</g>
</g>
</svg>
